# xmcd
#
# Track frame offsets:
#	182
#	24830
#	45752
#	85167
#	112165
#	140312
#	163070
#	190235
#	210212
#	237907
#
# Disc length: 3570 seconds
#
# Revision: 0
# Processed by: cddbd v1.5.1PL0 Copyright (c) Steve Scherf et al.
# Submitted via: audiograbber 1.83.01
#
DISCID=740df00a
DTITLE=Ravi Khaiyyaam - Nikaah Umrao Jaan
DYEAR=1994
DGENRE=Soundtrack
TTITLE0=Dil Ki Yeh Aarzoo Thi Koi Diluba Mile
TTITLE1=Dil Ke Armaan Aansuon Mein Beh Gaye
TTITLE2=Chehra Chhupa Liya Hai
TTITLE3=Beete Hue Lamhon Ki
TTITLE4=Fiza Bhi Hai Jawan Jawan
TTITLE5=Zindagi Jab Bhi
TTITLE6=Ye Kya Jagah Hai Dosto
TTITLE7=Justuju Jiski Thi
TTITLE8=In Aankhon Ki Masti
TTITLE9=Dil Cheez Kya Hai
EXTD=
EXTT0=
EXTT1=
EXTT2=
EXTT3=
EXTT4=
EXTT5=
EXTT6=
EXTT7=
EXTT8=
EXTT9=
PLAYORDER=
